<svg width="34" height="34" viewBox="0 0 34 34" fill="none" xmlns="http://www.w3.org/2000/svg">
<path d="M28.6873 17.8075V17V16.1819L30.7273 14.3969C31.1034 14.0654 31.3502 13.6117 31.424 13.1159C31.4979 12.6201 31.3942 12.1142 31.1311 11.6875L28.6236 7.4375C28.4373 7.11478 28.1694 6.84673 27.8467 6.66025C27.5241 6.47376 27.1581 6.37539 26.7855 6.375C26.5545 6.37324 26.3249 6.40912 26.1055 6.48125L23.5236 7.35251C23.0778 7.05629 22.6128 6.79007 22.1317 6.55563L21.5898 3.87813C21.4927 3.38896 21.2266 2.94955 20.8381 2.63681C20.4496 2.32408 19.9635 2.15795 19.4648 2.1675H14.4923C13.9937 2.15795 13.5076 2.32408 13.1191 2.63681C12.7306 2.94955 12.4645 3.38896 12.3673 3.87813L11.8255 6.55563C11.3409 6.79002 10.8724 7.05622 10.423 7.35251L7.89422 6.43876C7.67247 6.38098 7.44284 6.35945 7.21422 6.375C6.84157 6.37539 6.47558 6.47376 6.15295 6.66025C5.83033 6.84673 5.56241 7.11478 5.37609 7.4375L2.86859 11.6875C2.62059 12.1136 2.52843 12.6126 2.60791 13.0991C2.68738 13.5856 2.93353 14.0294 3.30422 14.3544L5.31234 16.1925V17.8181L3.30422 19.6031C2.92306 19.9304 2.67017 20.3821 2.59043 20.8781C2.51068 21.3741 2.60923 21.8823 2.86859 22.3125L5.37609 26.5625C5.56241 26.8852 5.83033 27.1533 6.15295 27.3398C6.47558 27.5263 6.84157 27.6246 7.21422 27.625C7.44515 27.6268 7.67483 27.5909 7.89422 27.5188L10.4761 26.6475C10.9219 26.9437 11.3868 27.2099 11.868 27.4444L12.4098 30.1219C12.507 30.611 12.7731 31.0505 13.1616 31.3632C13.5501 31.6759 14.0362 31.8421 14.5348 31.8325H19.5498C20.0485 31.8421 20.5346 31.6759 20.9231 31.3632C21.3116 31.0505 21.5777 30.611 21.6748 30.1219L22.2167 27.4444C22.7013 27.21 23.1698 26.9438 23.6192 26.6475L26.1905 27.5188C26.4098 27.5909 26.6395 27.6268 26.8705 27.625C27.2431 27.6246 27.6091 27.5263 27.9317 27.3398C28.2544 27.1533 28.5223 26.8852 28.7086 26.5625L31.1311 22.3125C31.3791 21.8865 31.4712 21.3874 31.3918 20.9009C31.3123 20.4144 31.0661 19.9706 30.6955 19.6456L28.6873 17.8075ZM26.7855 25.5L23.1411 24.2675C22.288 24.9901 21.3129 25.555 20.2617 25.9356L19.5073 29.75H14.4923L13.738 25.9781C12.695 25.5867 11.7253 25.0228 10.8692 24.31L7.21422 25.5L4.70672 21.25L7.59672 18.7C7.40026 17.6002 7.40026 16.4742 7.59672 15.3744L4.70672 12.75L7.21422 8.5L10.8586 9.7325C11.7117 9.00989 12.6867 8.44502 13.738 8.06438L14.4923 4.25H19.5073L20.2617 8.02188C21.3046 8.41333 22.2744 8.97722 23.1305 9.69L26.7855 8.5L29.293 12.75L26.403 15.3C26.5994 16.3998 26.5994 17.5258 26.403 18.6256L29.293 21.25L26.7855 25.5Z" fill="white"/>
<path d="M17 23.375C15.7391 23.375 14.5066 23.0011 13.4582 22.3006C12.4099 21.6001 11.5928 20.6045 11.1103 19.4396C10.6278 18.2747 10.5015 16.9929 10.7475 15.7563C10.9935 14.5197 11.6006 13.3838 12.4922 12.4922C13.3838 11.6006 14.5197 10.9935 15.7563 10.7475C16.9929 10.5015 18.2747 10.6278 19.4396 11.1103C20.6045 11.5928 21.6001 12.4099 22.3006 13.4582C23.0011 14.5066 23.375 15.7391 23.375 17C23.3835 17.8396 23.2245 18.6724 22.9071 19.4497C22.5897 20.227 22.1205 20.9331 21.5268 21.5268C20.9331 22.1205 20.227 22.5897 19.4497 22.9071C18.6724 23.2245 17.8396 23.3835 17 23.375ZM17 12.75C16.4383 12.7369 15.8798 12.8379 15.3582 13.0469C14.8367 13.2558 14.363 13.5684 13.9657 13.9657C13.5684 14.363 13.2558 14.8367 13.0469 15.3582C12.8379 15.8798 12.7369 16.4383 12.75 17C12.7369 17.5617 12.8379 18.1202 13.0469 18.6418C13.2558 19.1633 13.5684 19.6371 13.9657 20.0343C14.363 20.4316 14.8367 20.7442 15.3582 20.9532C15.8798 21.1621 16.4383 21.2631 17 21.25C17.5617 21.2631 18.1202 21.1621 18.6418 20.9532C19.1633 20.7442 19.6371 20.4316 20.0343 20.0343C20.4316 19.6371 20.7442 19.1633 20.9532 18.6418C21.1621 18.1202 21.2631 17.5617 21.25 17C21.2631 16.4383 21.1621 15.8798 20.9532 15.3582C20.7442 14.8367 20.4316 14.363 20.0343 13.9657C19.6371 13.5684 19.1633 13.2558 18.6418 13.0469C18.1202 12.8379 17.5617 12.7369 17 12.75Z" fill="white"/>
</svg>
