 <svg xmlns="http://www.w3.org/2000/svg">
    <defs>
     <symbol id='again'>
      <path fill-rule="evenodd" clip-rule="evenodd"
        d="M2.45334 13C2.45334 7.70797 6.57867 2.45331 13 2.45331C18.1856 2.45331 20.7504 6.29117 21.8424 8.33331H18.6C18.3525 8.33331 18.1151 8.43164 17.94 8.60667C17.765 8.78171 17.6667 9.0191 17.6667 9.26664C17.6667 9.51417 17.765 9.75157 17.94 9.92661C18.1151 10.1016 18.3525 10.2 18.6 10.2H24.2C24.4475 10.2 24.6849 10.1016 24.86 9.92661C25.035 9.75157 25.1333 9.51417 25.1333 9.26664V3.66664C25.1333 3.4191 25.035 3.18171 24.86 3.00667C24.6849 2.83164 24.4475 2.73331 24.2 2.73331C23.9525 2.73331 23.7151 2.83164 23.54 3.00667C23.365 3.18171 23.2667 3.4191 23.2667 3.66664V7.05091C21.9525 4.73251 18.9099 0.586639 13 0.586639C5.41574 0.586639 0.58667 6.81197 0.58667 13C0.58667 19.188 5.41574 25.4133 13 25.4133C16.6288 25.4133 19.6491 23.976 21.7995 21.7882C22.9405 20.6244 23.8457 19.2508 24.4651 17.7432C24.5116 17.6298 24.5354 17.5084 24.5351 17.3858C24.5347 17.2632 24.5102 17.1419 24.463 17.0288C24.4158 16.9157 24.3467 16.813 24.2598 16.7266C24.1729 16.6402 24.0698 16.5717 23.9564 16.5252C23.843 16.4786 23.7216 16.4548 23.599 16.4552C23.4765 16.4555 23.3552 16.48 23.2421 16.5272C23.129 16.5745 23.0263 16.6435 22.9398 16.7305C22.8534 16.8174 22.785 16.9205 22.7384 17.0338C22.2109 18.318 21.4402 19.4881 20.4685 20.4797C18.656 22.3277 16.108 23.5466 13 23.5466C6.57867 23.5466 2.45334 18.292 2.45334 13Z"
      fill="currentColor" />
     </symbol>
    </defs>
     <defs>
     <symbol id='settings'>
      <path d="M28.6873 17.8075V17V16.1819L30.7273 14.3969C31.1034 14.0654 31.3502 13.6117 31.424 13.1159C31.4979 12.6201 31.3942 12.1142 31.1311 11.6875L28.6236 7.4375C28.4373 7.11478 28.1694 6.84673 27.8467 6.66025C27.5241 6.47376 27.1581 6.37539 26.7855 6.375C26.5545 6.37324 26.3248 6.40912 26.1055 6.48125L23.5236 7.3525C23.0778 7.05629 22.6128 6.79007 22.1317 6.55563L21.5898 3.87813C21.4927 3.38896 21.2266 2.94955 20.8381 2.63681C20.4496 2.32408 19.9635 2.15795 19.4648 2.1675H14.4923C13.9937 2.15795 13.5076 2.32408 13.1191 2.63681C12.7306 2.94955 12.4645 3.38896 12.3673 3.87813L11.8255 6.55563C11.3409 6.79002 10.8724 7.05622 10.423 7.3525L7.89422 6.43875C7.67247 6.38098 7.44284 6.35945 7.21422 6.375C6.84157 6.37539 6.47558 6.47376 6.15295 6.66025C5.83033 6.84673 5.56241 7.11478 5.37609 7.4375L2.86859 11.6875C2.62059 12.1136 2.52843 12.6126 2.60791 13.0991C2.68738 13.5856 2.93353 14.0294 3.30422 14.3544L5.31234 16.1925V17.8181L3.30422 19.6031C2.92306 19.9304 2.67017 20.3821 2.59043 20.8781C2.51068 21.3741 2.60923 21.8823 2.86859 22.3125L5.37609 26.5625C5.56241 26.8852 5.83033 27.1533 6.15295 27.3398C6.47558 27.5263 6.84157 27.6246 7.21422 27.625C7.44515 27.6268 7.67483 27.5909 7.89422 27.5188L10.4761 26.6475C10.9219 26.9437 11.3868 27.2099 11.868 27.4444L12.4098 30.1219C12.507 30.611 12.7731 31.0505 13.1616 31.3632C13.5501 31.6759 14.0362 31.8421 14.5348 31.8325H19.5498C20.0485 31.8421 20.5346 31.6759 20.9231 31.3632C21.3116 31.0505 21.5777 30.611 21.6748 30.1219L22.2167 27.4444C22.7013 27.21 23.1698 26.9438 23.6192 26.6475L26.1905 27.5188C26.4098 27.5909 26.6395 27.6268 26.8705 27.625C27.2431 27.6246 27.6091 27.5263 27.9317 27.3398C28.2544 27.1533 28.5223 26.8852 28.7086 26.5625L31.1311 22.3125C31.3791 21.8865 31.4712 21.3874 31.3918 20.9009C31.3123 20.4144 31.0661 19.9706 30.6955 19.6456L28.6873 17.8075ZM26.7855 25.5L23.1411 24.2675C22.288 24.9901 21.3129 25.555 20.2617 25.9356L19.5073 29.75H14.4923L13.738 25.9781C12.695 25.5867 11.7253 25.0228 10.8692 24.31L7.21422 25.5L4.70672 21.25L7.59672 18.7C7.40026 17.6002 7.40026 16.4742 7.59672 15.3744L4.70672 12.75L7.21422 8.5L10.8586 9.7325C11.7117 9.00989 12.6867 8.44503 13.738 8.06438L14.4923 4.25H19.5073L20.2617 8.02188C21.3046 8.41333 22.2744 8.97722 23.1305 9.69L26.7855 8.5L29.293 12.75L26.403 15.3C26.5994 16.3998 26.5994 17.5258 26.403 18.6256L29.293 21.25L26.7855 25.5Z"
                        fill="white" />
      <path d="M17 23.375C15.7391 23.375 14.5066 23.0011 13.4582 22.3006C12.4099 21.6001 11.5928 20.6045 11.1103 19.4396C10.6278 18.2747 10.5015 16.9929 10.7475 15.7563C10.9935 14.5197 11.6006 13.3838 12.4922 12.4922C13.3838 11.6006 14.5197 10.9935 15.7563 10.7475C16.9929 10.5015 18.2747 10.6278 19.4396 11.1103C20.6045 11.5928 21.6001 12.4099 22.3006 13.4582C23.0011 14.5066 23.375 15.7391 23.375 17C23.3835 17.8396 23.2245 18.6724 22.9071 19.4497C22.5897 20.227 22.1205 20.9331 21.5268 21.5268C20.9331 22.1205 20.227 22.5897 19.4497 22.9071C18.6724 23.2245 17.8396 23.3835 17 23.375V23.375ZM17 12.75C16.4383 12.7369 15.8798 12.8379 15.3582 13.0469C14.8367 13.2558 14.363 13.5684 13.9657 13.9657C13.5684 14.363 13.2558 14.8367 13.0469 15.3582C12.8379 15.8798 12.7369 16.4383 12.75 17C12.7369 17.5617 12.8379 18.1202 13.0469 18.6418C13.2558 19.1633 13.5684 19.6371 13.9657 20.0343C14.363 20.4316 14.8367 20.7442 15.3582 20.9532C15.8798 21.1621 16.4383 21.2631 17 21.25C17.5617 21.2631 18.1202 21.1621 18.6418 20.9532C19.1633 20.7442 19.6371 20.4316 20.0343 20.0343C20.4316 19.6371 20.7442 19.1633 20.9532 18.6418C21.1621 18.1202 21.2631 17.5617 21.25 17C21.2631 16.4383 21.1621 15.8798 20.9532 15.3582C20.7442 14.8367 20.4316 14.363 20.0343 13.9657C19.6371 13.5684 19.1633 13.2558 18.6418 13.0469C18.1202 12.8379 17.5617 12.7369 17 12.75Z"
                                fill="white" />
     </symbol>
    </defs>
     <defs>
     <symbol id='volume'>
     <path d="M13.9285 1.99999C13.9282 1.7883 13.8681 1.58098 13.7553 1.40188C13.6425 1.22277 13.4814 1.07914 13.2905 0.987491C13.0997 0.89584 12.8869 0.859888 12.6766 0.883768C12.4662 0.907648 12.2669 0.99039 12.1015 1.12249L6.78472 5.37499H1.55347C1.2551 5.37499 0.96895 5.49351 0.757972 5.70449C0.546993 5.91547 0.428467 6.20162 0.428467 6.49999V15.5C0.428467 15.7984 0.546993 16.0845 0.757972 16.2955C0.96895 16.5065 1.2551 16.625 1.55347 16.625H6.78472L12.1015 20.8775C12.2669 21.0096 12.4662 21.0923 12.6766 21.1162C12.8869 21.1401 13.0997 21.1041 13.2905 21.0125C13.4814 20.9208 13.6425 20.7772 13.7553 20.5981C13.8681 20.419 13.9282 20.2117 13.9285 20V1.99999ZM7.88047 7.37749L11.6785 4.33999V17.66L7.88047 14.6225C7.68133 14.4627 7.43377 14.3754 7.17847 14.375H2.67847V7.62499H7.17847C7.43377 7.62453 7.68133 7.53725 7.88047 7.37749V7.37749ZM20.7347 11C20.7365 12.3299 20.4754 13.647 19.9664 14.8757C19.4575 16.1043 18.7108 17.2203 17.7692 18.1595L16.1785 16.5687C16.9108 15.8382 17.4916 14.9702 17.8873 14.0145C18.2831 13.0588 18.4861 12.0344 18.4847 11C18.486 9.96562 18.283 8.94118 17.8872 7.98552C17.4914 7.02986 16.9107 6.16182 16.1785 5.43124L17.7692 3.84049C18.7108 4.77965 19.4575 5.89564 19.9664 7.1243C20.4754 8.35297 20.7365 9.67009 20.7347 11V11Z" fill="white" fill-opacity="0.6"/>
     </symbol>
    </defs>

     <defs>
       <symbol id='mute'>
         <path d="M12.8633 0.987539C13.0539 1.07936 13.2147 1.22306 13.3273 1.40216C13.44 1.58125 13.4998 1.78847 13.5 2.00004V20C13.4997 20.2117 13.4397 20.419 13.3268 20.5981C13.214 20.7773 13.0529 20.9209 12.8621 21.0125C12.6712 21.1042 12.4584 21.1401 12.2481 21.1163C12.0378 21.0924 11.8384 21.0096 11.673 20.8775L6.35625 16.625H1.125C0.826631 16.625 0.540483 16.5065 0.329505 16.2955C0.118526 16.0846 0 15.7984 0 15.5V6.50004C0 6.20167 0.118526 5.91552 0.329505 5.70454C0.540483 5.49357 0.826631 5.37504 1.125 5.37504H6.35625L11.673 1.12254C11.8385 0.990212 12.0381 0.907334 12.2487 0.88345C12.4592 0.859566 12.6723 0.895647 12.8633 0.987539ZM11.25 4.34004L7.452 7.37754C7.25286 7.5373 7.00531 7.62459 6.75 7.62504H2.25V14.375H6.75C7.00531 14.3755 7.25286 14.4628 7.452 14.6225L11.25 17.66V4.34004ZM28.9215 5.70354C29.0263 5.80804 29.1094 5.93219 29.1661 6.06886C29.2228 6.20554 29.252 6.35206 29.252 6.50004C29.252 6.64802 29.2228 6.79454 29.1661 6.93122C29.1094 7.06789 29.0263 7.19204 28.9215 7.29654L25.2157 11L28.9215 14.7035C29.1327 14.9148 29.2514 15.2013 29.2514 15.5C29.2514 15.7988 29.1327 16.0853 28.9215 16.2965C28.7103 16.5078 28.4237 16.6265 28.125 16.6265C27.8263 16.6265 27.5397 16.5078 27.3285 16.2965L23.625 12.5908L19.9215 16.2965C19.7103 16.5078 19.4237 16.6265 19.125 16.6265C18.8263 16.6265 18.5397 16.5078 18.3285 16.2965C18.1173 16.0853 17.9986 15.7988 17.9986 15.5C17.9986 15.2013 18.1173 14.9148 18.3285 14.7035L22.0343 11L18.3285 7.29654C18.2239 7.19194 18.1409 7.06777 18.0843 6.9311C18.0277 6.79444 17.9986 6.64796 17.9986 6.50004C17.9986 6.35212 18.0277 6.20564 18.0843 6.06898C18.1409 5.93231 18.2239 5.80814 18.3285 5.70354C18.5397 5.49229 18.8263 5.37362 19.125 5.37362C19.2729 5.37362 19.4194 5.40275 19.5561 5.45936C19.6927 5.51597 19.8169 5.59894 19.9215 5.70354L23.625 9.40929L27.3285 5.70354C27.433 5.59877 27.5571 5.51565 27.6938 5.45894C27.8305 5.40222 27.977 5.37303 28.125 5.37303C28.273 5.37303 28.4195 5.40222 28.5562 5.45894C28.6929 5.51565 28.817 5.59877 28.9215 5.70354Z" fill="white" fill-opacity="0.6"/>
       </symbol>
    </defs>

     <defs>
       <symbol id='close'>
        <path d="M11.113 8.99872L17.5567 2.56902C17.8389 2.2868 17.9974 1.90402 17.9974 1.5049C17.9974 1.10577 17.8389 0.722997 17.5567 0.440774C17.2745 0.158551 16.8918 0 16.4928 0C16.0937 0 15.711 0.158551 15.4288 0.440774L9 6.88546L2.57121 0.440774C2.28903 0.158551 1.90631 -2.9737e-09 1.50724 0C1.10817 2.9737e-09 0.725452 0.158551 0.443269 0.440774C0.161086 0.722997 0.00255743 1.10577 0.00255743 1.5049C0.00255743 1.90402 0.161086 2.2868 0.443269 2.56902L6.88704 8.99872L0.443269 15.4284C0.302812 15.5678 0.191329 15.7335 0.115249 15.9162C0.0391699 16.0988 0 16.2947 0 16.4925C0 16.6904 0.0391699 16.8863 0.115249 17.0689C0.191329 17.2516 0.302812 17.4173 0.443269 17.5567C0.582579 17.6971 0.74832 17.8086 0.930933 17.8847C1.11355 17.9608 1.30941 18 1.50724 18C1.70507 18 1.90094 17.9608 2.08355 17.8847C2.26616 17.8086 2.4319 17.6971 2.57121 17.5567L9 11.112L15.4288 17.5567C15.5681 17.6971 15.7338 17.8086 15.9165 17.8847C16.0991 17.9608 16.2949 18 16.4928 18C16.6906 18 16.8865 17.9608 17.0691 17.8847C17.2517 17.8086 17.4174 17.6971 17.5567 17.5567C17.6972 17.4173 17.8087 17.2516 17.8848 17.0689C17.9608 16.8863 18 16.6904 18 16.4925C18 16.2947 17.9608 16.0988 17.8848 15.9162C17.8087 15.7335 17.6972 15.5678 17.5567 15.4284L11.113 8.99872Z" fill="white"/>
       </symbol>
    </defs>

    <defs>
       <symbol id='sign-true'>
          <path d="M60 30C60 37.9565 56.8393 45.5871 51.2132 51.2132C45.5871 56.8393 37.9565 60 30 60C22.0435 60 14.4129 56.8393 8.7868 51.2132C3.16071 45.5871 0 37.9565 0 30C0 22.0435 3.16071 14.4129 8.7868 8.7868C14.4129 3.16071 22.0435 0 30 0C37.9565 0 45.5871 3.16071 51.2132 8.7868C56.8393 14.4129 60 22.0435 60 30ZM45.1125 18.6375C44.8446 18.3706 44.5257 18.1604 44.1747 18.0196C43.8238 17.8787 43.448 17.8101 43.07 17.8178C42.6919 17.8255 42.3192 17.9094 41.9743 18.0644C41.6294 18.2194 41.3193 18.4424 41.0625 18.72L28.0388 35.3138L20.19 27.4613C19.6568 26.9645 18.9517 26.694 18.223 26.7068C17.4944 26.7197 16.7992 27.0149 16.2839 27.5302C15.7686 28.0455 15.4735 28.7407 15.4606 29.4693C15.4477 30.1979 15.7182 30.9031 16.215 31.4363L26.1375 41.3625C26.4048 41.6293 26.7231 41.8396 27.0734 41.9807C27.4238 42.1218 27.7989 42.191 28.1765 42.184C28.5542 42.177 28.9265 42.094 29.2714 41.94C29.6162 41.7859 29.9265 41.564 30.1838 41.2875L45.1538 22.575C45.6641 22.0444 45.946 21.3348 45.939 20.5986C45.932 19.8624 45.6366 19.1583 45.1163 18.6375H45.1125Z" fill="#3DDA69"/>
       </symbol>
    </defs>

    <defs>
       <symbol id='sign-false'>
          <path d="M10.0611 13L1.98207 4.92098C1.7891 4.72801 1.63603 4.49892 1.53159 4.24679C1.42716 3.99466 1.3734 3.72443 1.3734 3.45152C1.3734 3.17862 1.42716 2.90839 1.53159 2.65626C1.63603 2.40413 1.7891 2.17504 1.98207 1.98207C2.17504 1.7891 2.40413 1.63603 2.65626 1.53159C2.90839 1.42716 3.17862 1.3734 3.45152 1.3734C3.72443 1.3734 3.99466 1.42716 4.24679 1.53159C4.49892 1.63603 4.72801 1.7891 4.92098 1.98207L13.0003 10.0614L21.0787 1.99941C21.0788 1.99931 21.0789 1.99921 21.079 1.99912C21.2718 1.80599 21.5008 1.65277 21.7529 1.54821C22.0051 1.4436 22.2754 1.38975 22.5485 1.38975C22.8215 1.38975 23.0919 1.4436 23.3441 1.54821C23.5961 1.65277 23.8251 1.80601 24.0179 1.99914L10.0611 13ZM10.0611 13L1.98207 21.079C1.7891 21.272 1.63603 21.5011 1.53159 21.7532C1.42716 22.0053 1.3734 22.2756 1.3734 22.5485C1.3734 22.8214 1.42716 23.0916 1.53159 23.3437C1.63603 23.5959 1.7891 23.825 1.98207 24.0179C2.17504 24.2109 2.40413 24.364 2.65626 24.4684C2.90839 24.5728 3.17862 24.6266 3.45152 24.6266C3.72443 24.6266 3.99466 24.5728 4.24679 24.4684C4.49892 24.364 4.72801 24.2109 4.92098 24.0179L13 15.9389L21.079 24.0179C21.272 24.2109 21.5011 24.364 21.7532 24.4684C22.0053 24.5728 22.2756 24.6266 22.5485 24.6266C22.8214 24.6266 23.0916 24.5728 23.3437 24.4684C23.5959 24.364 23.825 24.2109 24.0179 24.0179C24.2109 23.825 24.364 23.5959 24.4684 23.3437C24.5728 23.0916 24.6266 22.8214 24.6266 22.5485C24.6266 22.2756 24.5728 22.0053 24.4684 21.7532C24.364 21.5011 24.2109 21.272 24.0179 21.079L15.9389 13L24.0179 4.92098C24.8135 4.12544 24.8135 2.79487 24.0181 1.99927L10.0611 13Z" fill="#010101" stroke="#010101" stroke-width="0.753191"/>
       </symbol>
    </defs>

    <defs>
       <symbol id='round-finished'>
          <path fill-rule="evenodd" clip-rule="evenodd" d="M133.174 0.019043H34.3711V11.4889H0.0175781V65.2894C0.0175781 86.082 23.209 103.192 45.9668 104.972C53.4379 112.982 66.5789 118.801 78.2747 121.282V135.344C67.0903 138.781 47.1119 146.858 45.9668 155.658H122.723C121.567 146.858 99.5539 138.77 88.3473 135.344V121.282C100.088 118.801 113.818 112.982 121.3 104.972C144.047 103.192 166.215 86.082 166.215 65.2894V11.4889H133.174V0.019043ZM10.5682 21.6794H33.5706V68.0262C33.5706 77.1709 35.9276 85.8707 40.0745 93.7027C22.8643 88.218 10.5682 74.0893 10.5682 57.5575V21.6794ZM100.666 78.2055L83.5 68.7382L66.3121 78.2055L69.5918 58.1805L55.6947 44.0073L74.8949 41.0814L83.5 22.8809L92.0828 41.0814L111.283 44.0073L97.3859 58.1805L100.666 78.2055ZM126.181 95.1823C130.35 86.9943 132.74 77.9385 132.74 68.3599V21.9798H155.798V57.424C155.798 74.7012 143.446 89.4529 126.181 95.1823Z" fill="#FFBCA2"/>
       </symbol>
    </defs>

     <defs>
       <symbol id='arrow'>
         <path d="M8.59253 19.9167C8.38088 19.9174 8.17177 19.8707 7.98055 19.78C7.78933 19.6893 7.62086 19.5569 7.48753 19.3925L0.645029 10.8925C0.436663 10.639 0.322754 10.3211 0.322754 9.99294C0.322754 9.6648 0.436663 9.34684 0.645029 9.09335L7.72836 0.593352C7.96882 0.304045 8.31436 0.12211 8.68897 0.0875719C9.06357 0.053034 9.43655 0.168722 9.72586 0.409185C10.0152 0.649648 10.1971 0.995189 10.2316 1.36979C10.2662 1.7444 10.1505 2.11738 9.91003 2.40668L3.57753 10L9.69753 17.5934C9.87076 17.8013 9.9808 18.0545 10.0146 18.323C10.0485 18.5916 10.0047 18.8642 9.88842 19.1086C9.77217 19.353 9.58834 19.559 9.35869 19.7022C9.12903 19.8454 8.86316 19.9198 8.59253 19.9167Z" fill="currentColor"/>
       </symbol>
    </defs>



<svg width="11" height="20" viewBox="0 0 11 20" fill="none" xmlns="http://www.w3.org/2000/svg">
<path d="M8.59253 19.9167C8.38088 19.9174 8.17177 19.8707 7.98055 19.78C7.78933 19.6893 7.62086 19.5569 7.48753 19.3925L0.645029 10.8925C0.436663 10.639 0.322754 10.3211 0.322754 9.99294C0.322754 9.6648 0.436663 9.34684 0.645029 9.09335L7.72836 0.593352C7.96882 0.304045 8.31436 0.12211 8.68897 0.0875719C9.06357 0.053034 9.43655 0.168722 9.72586 0.409185C10.0152 0.649648 10.1971 0.995189 10.2316 1.36979C10.2662 1.7444 10.1505 2.11738 9.91003 2.40668L3.57753 10L9.69753 17.5934C9.87076 17.8013 9.9808 18.0545 10.0146 18.323C10.0485 18.5916 10.0047 18.8642 9.88842 19.1086C9.77217 19.353 9.58834 19.559 9.35869 19.7022C9.12903 19.8454 8.86316 19.9198 8.59253 19.9167Z" fill="white"/>
</svg>








  

 
</svg>